<svg width="20" height="20" viewBox="0 0 20 20" fill="none" xmlns="http://www.w3.org/2000/svg">
<path d="M1.66663 6.41823C1.66663 5.17477 2.67465 4.16675 3.91811 4.16675C4.56418 4.16675 5.13776 3.75333 5.34207 3.14041L5.41663 2.91675C5.45178 2.81127 5.46936 2.75853 5.48817 2.71175C5.72833 2.11435 6.29112 1.70872 6.9338 1.6698C6.98414 1.66675 7.03973 1.66675 7.15091 1.66675H12.849C12.9602 1.66675 13.0158 1.66675 13.0661 1.6698C13.7088 1.70872 14.2716 2.11435 14.5117 2.71175C14.5306 2.75853 14.5481 2.81127 14.5833 2.91675L14.6578 3.14041C14.8622 3.75333 15.4357 4.16675 16.0818 4.16675C17.3253 4.16675 18.3333 5.17477 18.3333 6.41823V13.5001C18.3333 14.9002 18.3333 15.6003 18.0608 16.1351C17.8211 16.6055 17.4387 16.9879 16.9683 17.2276C16.4335 17.5001 15.7334 17.5001 14.3333 17.5001H5.66663C4.26649 17.5001 3.56643 17.5001 3.03165 17.2276C2.56124 16.9879 2.17879 16.6055 1.93911 16.1351C1.66663 15.6003 1.66663 14.9002 1.66663 13.5001V6.41823Z" stroke="white" stroke-width="1.5" stroke-linecap="round" stroke-linejoin="round"/>
<path d="M9.99996 13.7501C12.071 13.7501 13.75 12.0711 13.75 10.0001C13.75 7.92901 12.071 6.25008 9.99996 6.25008C7.92889 6.25008 6.24996 7.92901 6.24996 10.0001C6.24996 12.0711 7.92889 13.7501 9.99996 13.7501Z" stroke="white" stroke-width="1.5" stroke-linecap="round" stroke-linejoin="round"/>
</svg>
