<svg width="18" height="18" viewBox="0 0 18 18" fill="none" xmlns="http://www.w3.org/2000/svg">
<rect x="6.12103" y="6.12061" width="7.42424" height="5.93939" fill="white"/>
<path fill-rule="evenodd" clip-rule="evenodd" d="M1.68988 9.09001C1.68966 8.99065 1.67015 8.8914 1.63134 8.79788L1.09573 7.50103C0.982571 7.22792 0.92412 6.93474 0.924072 6.63911C0.924025 6.34332 0.98226 6.05041 1.09545 5.77713C1.20864 5.50385 1.37457 5.25555 1.58376 5.04643C1.79289 4.83735 2.04116 4.67153 2.31439 4.55842L3.60912 4.0221C3.79663 3.94457 3.94618 3.79568 4.02425 3.60838L4.56069 2.31326C4.78919 1.76157 5.22749 1.32325 5.77918 1.09473C6.33086 0.866209 6.95072 0.866209 7.5024 1.09473L8.79654 1.6308C8.98433 1.70833 9.19543 1.70823 9.38309 1.63036L9.38456 1.62975L10.6798 1.09552C11.2313 0.867309 11.8513 0.867234 12.4027 1.09565C12.9543 1.32413 13.3926 1.76232 13.6211 2.31387L14.1447 3.57789C14.1493 3.58787 14.1538 3.59799 14.158 3.60825C14.2356 3.79596 14.3845 3.94518 14.5721 4.02318L15.8675 4.55981C16.4192 4.78833 16.8575 5.22665 17.086 5.77834C17.3145 6.33002 17.3145 6.94989 17.086 7.50157L16.5497 8.79636C16.5108 8.8904 16.4913 8.99059 16.4913 9.09023C16.4913 9.18987 16.5108 9.28961 16.5497 9.38365L17.086 10.6784C17.3145 11.2301 17.3145 11.85 17.086 12.4017C16.8575 12.9534 16.4192 13.3917 15.8675 13.6202L14.5721 14.1568C14.3845 14.2348 14.2356 14.3841 14.158 14.5718C14.1538 14.582 14.1493 14.5921 14.1447 14.6021L13.6211 15.8661C13.3926 16.4177 12.9543 16.8559 12.4027 17.0844C11.8513 17.3128 11.2313 17.3127 10.6798 17.0845L9.38456 16.5503L9.38309 16.5497C9.19543 16.4718 8.98433 16.4717 8.79654 16.5492L7.5024 17.0853C6.95072 17.3138 6.33086 17.3138 5.77918 17.0853C5.22749 16.8568 4.78919 16.4184 4.56069 15.8668L4.02425 14.5716C3.94618 14.3843 3.79663 14.2354 3.60912 14.1579L2.31439 13.6216C2.04116 13.5085 1.79289 13.3427 1.58376 13.1336C1.37457 12.9245 1.20864 12.6762 1.09545 12.4029C0.98226 12.1296 0.924025 11.8367 0.924072 11.5409C0.92412 11.2453 0.982571 10.9521 1.09573 10.679L1.63134 9.38213C1.67015 9.28861 1.68966 9.18936 1.68988 9.09001ZM12.2142 7.75892C12.5041 7.46898 12.5041 6.99891 12.2142 6.70897C11.9243 6.41904 11.4542 6.41904 11.1643 6.70897L8.34831 9.52491L7.38844 8.56503C7.0985 8.2751 6.62843 8.2751 6.33849 8.56503C6.04856 8.85497 6.04856 9.32504 6.33849 9.61498L7.82334 11.0998C8.11328 11.3898 8.58335 11.3898 8.87329 11.0998L12.2142 7.75892Z" fill="#1C63D5"/>
</svg>
